<svg width="196" height="38" viewBox="0 0 196 38" fill="none" xmlns="http://www.w3.org/2000/svg">
<g filter="url(#filter0_d_1_71)">
<path d="M6.33917 13.7397L16.9664 7.38148C17.2293 7.22151 17.5303 7.13508 17.8381 7.13122C18.1458 7.12736 18.4489 7.20621 18.7157 7.35953C19.0053 7.52813 19.245 7.77035 19.4107 8.06158C19.5763 8.35282 19.6619 8.68271 19.6588 9.01773V13.4657L29.8274 7.37979C30.0903 7.21982 30.3914 7.13339 30.6991 7.12953C31.0068 7.12567 31.3099 7.20452 31.5768 7.35784C31.8663 7.52644 32.1061 7.76866 32.2717 8.0599C32.4373 8.35113 32.5229 8.68102 32.5198 9.01604V21.4511C32.5231 21.7863 32.4376 22.1163 32.2719 22.4076C32.1063 22.699 31.8664 22.9413 31.5768 23.1099C31.3099 23.2632 31.0068 23.3421 30.6991 23.3382C30.3914 23.3344 30.0903 23.2479 29.8274 23.088L19.6588 16.9993V21.4489C19.6625 21.7844 19.5771 22.1149 19.4114 22.4067C19.2458 22.6985 19.0057 22.9411 18.7157 23.1099C18.4489 23.2632 18.1458 23.3421 17.8381 23.3382C17.5303 23.3344 17.2293 23.2479 16.9664 23.088L6.33917 16.7297C6.08653 16.5715 5.87825 16.3516 5.73386 16.0908C5.58948 15.83 5.51373 15.5368 5.51373 15.2387C5.51373 14.9405 5.58948 14.6473 5.73386 14.3865C5.87825 14.1257 6.08653 13.9058 6.33917 13.7476V13.7397Z" fill="#E1E1E6"/>
<path d="M91.3214 25.586C90.9759 25.5853 90.6366 25.4948 90.3367 25.3232C89.6615 24.9406 89.2418 24.1978 89.2418 23.3915V7.07398C89.2418 6.26542 89.6615 5.52494 90.3367 5.14232C90.6437 4.96589 90.9925 4.87516 91.3465 4.87961C91.7006 4.88407 92.0469 4.98354 92.3494 5.16764L106.295 13.5155C106.586 13.6977 106.826 13.9508 106.992 14.251C107.158 14.5511 107.245 14.8886 107.245 15.2316C107.245 15.5747 107.158 15.9121 106.992 16.2123C106.826 16.5125 106.586 16.7655 106.295 16.9478L92.3472 25.2979C92.0376 25.485 91.6831 25.5846 91.3214 25.586Z" fill="#E1E1E6"/>
<g clip-path="url(#clip0_1_71)">
<path d="M190.143 13.7397L179.515 7.38148C179.253 7.22151 178.951 7.13508 178.644 7.13122C178.336 7.12736 178.033 7.20621 177.766 7.35953C177.477 7.52813 177.237 7.77035 177.071 8.06158C176.906 8.35282 176.82 8.68271 176.823 9.01773V13.4657L166.654 7.37979C166.391 7.21982 166.09 7.13339 165.783 7.12953C165.475 7.12567 165.172 7.20452 164.905 7.35784C164.616 7.52644 164.376 7.76866 164.21 8.0599C164.044 8.35113 163.959 8.68102 163.962 9.01604V21.4511C163.959 21.7863 164.044 22.1163 164.21 22.4076C164.376 22.6989 164.615 22.9413 164.905 23.1099C165.172 23.2632 165.475 23.3421 165.783 23.3382C166.09 23.3344 166.391 23.2479 166.654 23.088L176.823 16.9993V21.4489C176.819 21.7844 176.905 22.1149 177.07 22.4066C177.236 22.6984 177.476 22.9411 177.766 23.1099C178.033 23.2632 178.336 23.3421 178.644 23.3382C178.951 23.3344 179.253 23.2479 179.515 23.088L190.143 16.7297C190.395 16.5715 190.604 16.3516 190.748 16.0908C190.892 15.83 190.968 15.5368 190.968 15.2387C190.968 14.9405 190.892 14.6473 190.748 14.3865C190.604 14.1257 190.395 13.9058 190.143 13.7476V13.7397Z" fill="#E1E1E6"/>
</g>
</g>
<defs>
<filter id="filter0_d_1_71" x="-0.588135" y="0.828369" width="197.659" height="36.8089" filterUnits="userSpaceOnUse" color-interpolation-filters="sRGB">
<feFlood flood-opacity="0" result="BackgroundImageFix"/>
<feColorMatrix in="SourceAlpha" type="matrix" values="0 0 0 0 0 0 0 0 0 0 0 0 0 0 0 0 0 0 127 0" result="hardAlpha"/>
<feOffset dy="4"/>
<feGaussianBlur stdDeviation="2"/>
<feComposite in2="hardAlpha" operator="out"/>
<feColorMatrix type="matrix" values="0 0 0 0 0 0 0 0 0 0 0 0 0 0 0 0 0 0 0.25 0"/>
<feBlend mode="normal" in2="BackgroundImageFix" result="effect1_dropShadow_1_71"/>
<feBlend mode="normal" in="SourceGraphic" in2="effect1_dropShadow_1_71" result="shape"/>
</filter>
<clipPath id="clip0_1_71">
<rect width="28.8089" height="28.8089" fill="white" transform="translate(163.061 0.828369)"/>
</clipPath>
</defs>
</svg>
